<?xml version="1.0" encoding="UTF-8"?> <svg xmlns="http://www.w3.org/2000/svg" width="63" height="62" viewBox="0 0 63 62" fill="none"><rect x="0.5" width="62" height="62" rx="10" fill="#4E99C9"></rect><path d="M46.2933 16.5375C46.0116 16.2761 45.6688 16.1016 45.3017 16.0329C44.9345 15.9641 44.5569 16.0036 44.2091 16.1471L17.3034 27.4668C16.8905 27.6382 16.5409 27.9487 16.3073 28.3515C16.0736 28.7544 15.9686 29.2277 16.0081 29.7001C16.0476 30.1724 16.2295 30.6182 16.5262 30.9702C16.8229 31.3222 17.2185 31.5612 17.6532 31.6512L24.7221 33.1657V42.565C24.7226 42.9956 24.8418 43.4166 25.0648 43.7749C25.2878 44.1332 25.6047 44.413 25.9756 44.5791C26.2257 44.6883 26.4926 44.7465 26.7626 44.7509C27.0308 44.7526 27.2967 44.6969 27.5445 44.5869C27.7923 44.477 28.017 44.3151 28.2056 44.1107L32.1846 39.8483L38.1312 45.4535C38.4996 45.8073 38.9774 46.002 39.4721 45.9999C39.6853 46.0018 39.8973 45.9649 40.0989 45.8906C40.4354 45.776 40.7379 45.5685 40.9758 45.2889C41.2138 45.0094 41.3788 44.6676 41.4544 44.2981L46.9492 18.6765C47.0313 18.2898 47.0136 17.8864 46.8981 17.5096C46.7826 17.1328 46.5735 16.7967 46.2933 16.5375ZM17.7698 29.5278C17.7596 29.462 17.7716 29.3944 17.8036 29.3372C17.8357 29.28 17.8857 29.2369 17.9447 29.2155L40.4632 19.7382L25.3926 31.4014L18.003 29.8089C17.9386 29.8011 17.8791 29.7682 17.836 29.7163C17.793 29.6644 17.7694 29.5972 17.7698 29.5278ZM26.9667 42.7836C26.9263 42.829 26.8735 42.8595 26.8158 42.8707C26.7582 42.8819 26.6988 42.8733 26.646 42.846C26.5948 42.8221 26.5511 42.7829 26.52 42.733C26.489 42.6832 26.4721 42.6249 26.4711 42.565V34.4616L30.8582 38.6148L26.9667 42.7836ZM39.7636 43.8765C39.7537 43.9307 39.7305 43.981 39.6964 44.0225C39.6624 44.0639 39.6187 44.0949 39.5698 44.1124C39.5209 44.1298 39.4686 44.1331 39.4182 44.1218C39.3677 44.1106 39.321 44.0852 39.2827 44.0483L26.9958 32.4631L45.2147 18.3799L39.7636 43.8765Z" fill="#1C2121" stroke="#1C2121" stroke-width="0.229489"></path></svg> 