<?xml version="1.0" encoding="UTF-8"?> <svg xmlns="http://www.w3.org/2000/svg" width="63" height="62" viewBox="0 0 63 62" fill="none"><rect x="0.5" width="62" height="62" rx="10" fill="#4E99C9"></rect><path d="M30.6309 14C27.837 14.0397 21.8345 14.4873 18.4809 17.495C15.9901 19.9317 15.1114 23.4919 15.0201 27.9077C14.9287 32.3221 14.8099 40.5999 22.9756 42.8439H22.9799L22.9741 46.2666C22.9741 46.2666 22.9205 47.6508 23.8585 47.9341C24.9851 48.2769 25.6477 47.2257 26.7293 46.0896C27.3194 45.4662 28.1386 44.5539 28.7548 43.8512C34.3368 44.313 38.6313 43.2618 39.1214 43.1074C40.2465 42.7504 46.6259 41.9514 47.6641 33.6765C48.737 25.148 47.1421 19.7504 44.2713 17.3193C43.4072 16.5401 39.913 14.0609 32.1286 14.0283C32.1286 14.0283 31.5559 13.9929 30.6251 14.0043L30.6309 14ZM30.715 16.3985C31.5052 16.3928 31.9909 16.4225 31.9909 16.4225C38.5762 16.4509 41.7297 18.3889 42.4619 19.0378C44.8904 21.0707 46.1301 25.9342 45.2254 33.0588V33.0616C44.3496 39.9723 39.1736 40.4058 38.2196 40.7047C37.8136 40.8322 34.041 41.7488 29.2985 41.447C29.2985 41.447 25.7666 45.6121 24.6632 46.6945C24.4892 46.8645 24.2863 46.9311 24.1529 46.8985C23.9644 46.8517 23.9122 46.6321 23.9136 46.312L23.9426 40.6197C17.0383 38.7497 17.4399 31.7059 17.5197 28.0182C17.598 24.3291 18.307 21.3059 20.4136 19.2729C23.2554 16.7611 28.3503 16.414 30.7223 16.397L30.715 16.3985ZM31.266 20.0847C31.1535 20.0902 31.0476 20.1376 30.9697 20.217C30.8919 20.2965 30.8481 20.402 30.8474 20.512C30.8467 20.622 30.889 20.7281 30.9658 20.8085C31.0425 20.8889 31.1478 20.9377 31.2602 20.9446C33.6148 20.9588 35.5315 21.7054 37.1003 23.2C38.656 24.6819 39.4491 26.6964 39.4679 29.34C39.4708 29.5766 39.6709 29.765 39.913 29.765C40.0289 29.7635 40.1395 29.7175 40.2209 29.6369C40.3024 29.5562 40.348 29.4476 40.348 29.3343C40.3277 26.5236 39.452 24.2399 37.715 22.5852C35.9897 20.9418 33.8105 20.1017 31.266 20.0847ZM25.5244 21.0693C25.2162 21.0276 24.9025 21.0858 24.6313 21.2351L24.6168 21.2379C23.9934 21.5878 23.4337 22.0341 22.9553 22.5583C22.9524 22.5639 22.9466 22.5639 22.9437 22.5696C22.5565 23.0272 22.3347 23.4734 22.2767 23.9126C22.2654 23.9781 22.262 24.0447 22.2666 24.111C22.2666 24.3036 22.2985 24.4935 22.3608 24.6776L22.3797 24.6918C22.5754 25.3718 23.0655 26.4995 24.1268 28.3809C24.7357 29.4689 25.436 30.5059 26.2233 31.4778C26.6148 31.9651 27.0352 32.4312 27.4847 32.8718L27.6761 33.0588C28.1255 33.4951 28.604 33.9088 29.1027 34.2913C30.0982 35.0607 31.1584 35.7465 32.2722 36.3413C34.1976 37.3797 35.3546 37.8571 36.0476 38.0498L36.0621 38.0696C36.3144 38.1502 36.5814 38.1768 36.8451 38.1476C37.2945 38.0966 37.7542 37.8784 38.2196 37.4959C38.2254 37.4959 38.2239 37.4931 38.2312 37.4888C38.7676 37.0213 39.2214 36.4688 39.5795 35.8624L39.5839 35.8483C39.9101 35.2363 39.8014 34.6554 39.3229 34.2616C39.3171 34.2616 38.3109 33.4399 37.8194 33.0857C37.2974 32.7245 36.761 32.3887 36.2057 32.0799C35.4662 31.6761 34.7094 31.9297 34.3962 32.3264L33.7481 33.1254C33.4147 33.5263 32.7956 33.4739 32.7956 33.4739C28.272 32.3462 27.0613 27.8709 27.0613 27.8709C27.0613 27.8709 27.0077 27.2673 27.4209 26.9415L28.2372 26.3068C28.6388 26.0022 28.8983 25.2627 28.4836 24.5388C28.1687 23.9952 27.8251 23.4679 27.4542 22.9592C27.0649 22.4613 26.6636 21.9724 26.2508 21.4929C26.069 21.2704 25.8101 21.1207 25.523 21.0721L25.5244 21.0693ZM32.0344 22.316C31.9179 22.3126 31.8048 22.3546 31.7199 22.4327C31.6351 22.5108 31.5855 22.6187 31.582 22.7325C31.5786 22.8464 31.6215 22.9569 31.7015 23.0398C31.7814 23.1227 31.8918 23.1711 32.0083 23.1745C33.6901 23.2949 34.9327 23.8347 35.8432 24.8037C36.7566 25.7784 37.1916 26.9628 37.1568 28.4446C37.1631 28.5536 37.2113 28.6562 37.2916 28.732C37.372 28.8078 37.4786 28.8511 37.5903 28.8535C37.702 28.8558 37.8104 28.8169 37.894 28.7445C37.9776 28.6721 38.0302 28.5716 38.0412 28.463C38.0775 26.7984 37.557 25.3562 36.4942 24.2215C35.4213 23.0739 33.9178 22.4463 32.0721 22.3146H32.0373L32.0344 22.316ZM32.7057 24.6252C32.594 24.6268 32.4872 24.6696 32.4065 24.745C32.3258 24.8204 32.2773 24.9229 32.2707 25.0318C32.2591 25.2684 32.4447 25.471 32.6883 25.4851C33.4466 25.5248 33.9569 25.7331 34.302 26.083C34.65 26.4301 34.8645 26.9613 34.9051 27.732C34.9201 27.8388 34.9755 27.9363 35.0604 28.0051C35.1453 28.074 35.2535 28.1092 35.3637 28.1039C35.4739 28.0986 35.578 28.053 35.6555 27.9763C35.733 27.8996 35.7783 27.7973 35.7823 27.6895C35.7388 26.7772 35.4706 26.0207 34.9414 25.4837C34.4093 24.9482 33.6467 24.6705 32.7376 24.6238H32.7115L32.7057 24.6252Z" fill="#1C2121"></path></svg> 